# xmcd
#
# Track frame offsets: 
#        150
#        12932
#        28051
#        43875
#        57600
#        73830
#        91289
#        104255
#        121958
#        137421
#
# Disc length: 2015 seconds
#
# Revision: 0
# Processed by: cddbd v1.5.1PL0 Copyright (c) Steve Scherf et al.
# Submitted via: ExactAudioCopy v0.95a5
#
DISCID=8b07dd0a
DTITLE=Woody Bradshaw - Here To Stay
DYEAR=2005
DGENRE=Country
TTITLE0=Baby You're So Cool
TTITLE1=That Was Me
TTITLE2=White Cotton Dress
TTITLE3=Don't
TTITLE4=Here To Stay
TTITLE5=Saved By A Woman
TTITLE6=Friction
TTITLE7=Our Song
TTITLE8=Living The Dream
TTITLE9=I Need To Remember This
EXTD=
EXTT0=
EXTT1=
EXTT2=
EXTT3=
EXTT4=
EXTT5=
EXTT6=
EXTT7=
EXTT8=
EXTT9=
PLAYORDER=
